Patient4_TMGait_0pt2_01_left_09_GRF.mot
version=1
nRows=58
nColumns=19
inDegrees=no
endheader
time	F1x	F1y	F1z	M1x	M1y	M1z	F2x	F2y	F2z	M2x	M2y	M2z	EC1x	EC1y	EC1z	EC2x	EC2y	EC2z
19.86	-5.4235	56.8643	7.0487	-20.6626	-7.6288	56.4896	6.5067	719.4661	-27.8768	262.3583	29.3472	744.2985	-0.0592	0.0182	-0.0073	-0.0462	0.0165	0.9585
19.8836	-5.2969	51.5327	7.0209	-18.5832	-7.8626	50.8981	4.6539	736.3638	-27.4528	269.18	28.8752	761.127	-0.0592	0.0182	-0.0073	-0.0462	0.0165	0.9585
19.9073	-5.2172	44.4259	6.6888	-15.9042	-7.7716	43.6529	2.8255	757.727	-27.1923	277.6481	28.5179	782.4246	-0.0592	0.0182	-0.0073	-0.0462	0.0165	0.9585
19.9309	-5.0529	35.9887	6.0002	-12.7978	-7.246	35.2099	1.1022	781.8744	-27.1582	287.0781	28.354	806.4978	-0.0592	0.0182	-0.0073	-0.0462	0.0165	0.9585
19.9546	-4.6171	27.0423	4.9871	-9.5576	-6.2563	26.3653	-0.50196	806.1092	-27.3429	296.4241	28.3998	830.6261	-0.0592	0.0182	-0.0073	-0.0462	0.0165	0.9585
19.9782	-3.8337	18.5717	3.7829	-6.5255	-4.9133	18.0555	-2.0004	827.353	-27.6855	304.5198	28.6168	851.6979	-0.0592	0.0182	-0.0073	-0.0462	0.0165	0.9585
20.0019	-2.8752	11.4226	2.6013	-3.9874	-3.4925	11.0798	-3.3707	842.8993	-28.0943	310.3567	28.9186	866.9579	-0.0592	0.0182	-0.0073	-0.0462	0.0165	0.9585
20.0255	-1.9564	5.9705	1.6	-2.0637	-2.2329	5.7864	-4.5396	851.0794	-28.4659	313.3275	29.1896	874.6871	-0.0592	0.0182	-0.0073	-0.0462	0.0165	0.9585
20.0491	-1.1924	2.164	0.83502	-0.72525	-1.2401	2.1046	-5.4159	851.5752	-28.7223	313.3342	29.3349	874.5256	-0.0592	0.0182	-0.0073	-0.0462	0.0165	0.9585
20.0728	-0.62135	-0.28321	0.30124	0.13643	-0.5315	-0.25923	-5.9256	845.2821	-28.8331	310.7312	29.3116	867.3428	-0.0592	0.0182	-0.0073	-0.0462	0.0165	0.9585
20.0964	-0.23446	-1.7527	-0.037929	0.65739	-0.074596	-1.6835	-6.036	833.9452	-28.7975	306.1878	29.1156	854.8842	-0.0592	0.0182	-0.0073	-0.0462	0.0165	0.9585
20.1201	0.00051607	-2.6283	-0.23227	0.9731	0.18692	-2.5515	-5.7561	819.7212	-28.6334	300.5233	28.7645	839.3205	-0.0592	0.0182	-0.0073	-0.0462	0.0165	0.9585
20.1437	0.12105	-3.2413	-0.33123	1.2	0.31404	-3.1927	-5.1096	804.7005	-28.3677	294.5321	28.2753	822.7461	-0.0592	0.0182	-0.0073	-0.0462	0.0165	0.9585
20.1674	0.16427	-3.8359	-0.37817	1.4227	0.36442	-3.8489	-4.1197	790.4974	-28.0308	288.8347	27.6559	806.7637	-0.0592	0.0182	-0.0073	-0.0462	0.0165	0.9585
20.191	0.17129	-4.5422	-0.41051	1.6853	0.39222	-4.6525	-2.803	778.079	-27.6619	283.8146	26.9126	792.3239	-0.0592	0.0182	-0.0073	-0.0462	0.0165	0.9585
20.2146	0.18289	-5.348	-0.45764	1.9809	0.44458	-5.586	-1.166	767.8215	-27.3123	279.6336	26.0571	779.7929	-0.0592	0.0182	-0.0073	-0.0462	0.0165	0.9585
20.2383	0.23171	-6.067	-0.53797	2.2399	0.55389	-6.4459	0.78823	759.7033	-27.0497	276.2969	25.1241	769.1564	-0.0592	0.0182	-0.0073	-0.0462	0.0165	0.9585
20.2619	0.35139	-6.3219	-0.65514	2.3224	0.73714	-6.8238	3.0379	753.512	-26.9648	273.7272	24.1947	760.2291	-0.0592	0.0182	-0.0073	-0.0462	0.0165	0.9585
20.2856	0.57508	-5.5227	-0.79782	2.0106	0.99476	-6.0817	5.5416	748.9596	-27.1606	271.8087	23.3849	752.7716	-0.0592	0.0182	-0.0073	-0.0462	0.0165	0.9585
20.3092	0.92801	-2.8628	-0.93787	1.0089	1.3049	-3.3395	8.2299	745.6442	-27.7088	270.3774	22.8011	746.4563	-0.0592	0.0182	-0.0073	-0.0462	0.0165	0.9585
20.3329	1.4131	2.6432	-1.0238	-1.0442	1.6101	2.488	10.9797	742.9134	-28.6147	269.1787	22.51	740.7325	-0.0592	0.0182	-0.0073	-0.0462	0.0165	0.9585
20.3565	2.0034	12.0623	-0.97926	-4.536	1.8114	12.5824	13.6288	739.747	-29.7995	267.831	22.5138	734.6983	-0.0592	0.0182	-0.0073	-0.0462	0.0165	0.9585
20.3801	2.6227	26.342	-0.69551	-9.8048	1.7546	28.0132	16.0148	734.7682	-31.0966	265.8318	22.7337	727.0892	-0.0592	0.0182	-0.0073	-0.0462	0.0165	0.9585
20.4038	3.0607	46.0257	-0.022017	-17.0352	1.1874	49.4328	18.0059	726.4044	-32.2802	262.6151	23.0211	716.4321	-0.0592	0.0182	-0.0073	-0.0462	0.0165	0.9585
20.4274	2.9387	70.8999	1.2272	-26.1287	-0.24742	76.6955	19.5137	713.1906	-33.1116	257.6581	23.1944	701.3341	-0.0592	0.0182	-0.0073	-0.0462	0.0165	0.9585
20.4511	2.0312	99.8323	3.2137	-36.6438	-2.8229	108.6593	20.5107	694.1768	-33.3875	250.6254	23.0769	680.8721	-0.0592	0.0182	-0.0073	-0.0462	0.0165	0.9585
20.4747	0.37808	131.1167	5.8875	-47.9397	-6.4725	143.5259	21.0537	669.2732	-32.9948	241.4847	22.5389	654.9292	-0.0592	0.0182	-0.0073	-0.0462	0.0165	0.9585
20.4984	-1.9044	163.3385	8.9411	-59.5026	-10.8102	179.8019	21.252	639.3174	-31.9461	230.5256	21.5453	624.2691	-0.0592	0.0182	-0.0073	-0.0462	0.0165	0.9585
20.522	-4.7486	195.6531	12.0517	-71.0329	-15.4491	216.6147	21.1988	605.7973	-30.3584	218.2647	20.162	590.2875	-0.0592	0.0182	-0.0073	-0.0462	0.0165	0.9585
20.5456	-8.0844	227.4723	14.9921	-82.3244	-20.1038	253.3291	20.9369	570.4318	-28.4132	205.3097	18.5323	554.6204	-0.0592	0.0182	-0.0073	-0.0462	0.0165	0.9585
20.5693	-11.745	258.1606	17.6647	-93.1557	-24.5911	289.1778	20.4579	534.8889	-26.3166	192.2673	16.8413	518.8735	-0.0592	0.0182	-0.0073	-0.0462	0.0165	0.9585
20.5929	-15.445	286.991	20.0612	-103.2783	-28.7757	323.2069	19.7394	500.657	-24.2437	179.6974	15.2553	484.4944	-0.0592	0.0182	-0.0073	-0.0462	0.0165	0.9585
20.6166	-18.8453	313.37	22.1711	-112.4984	-32.4997	354.5449	18.7914	468.9356	-22.3085	168.0635	13.877	452.646	-0.0592	0.0182	-0.0073	-0.0462	0.0165	0.9585
20.6402	-21.6509	337.0676	23.9369	-120.7535	-35.5785	382.7084	17.6778	440.5235	-20.5845	157.6782	12.7539	424.0897	-0.0592	0.0182	-0.0073	-0.0462	0.0165	0.9585
20.6639	-23.6535	358.2346	25.3219	-128.1119	-37.8916	407.673	16.5067	415.7553	-19.1361	148.671	11.9059	399.1324	-0.0592	0.0182	-0.0073	-0.0462	0.0165	0.9585
20.6875	-24.7564	377.2944	26.3555	-134.7296	-39.4418	429.7861	15.4029	394.503	-18.0274	140.989	11.3416	377.6354	-0.0592	0.0182	-0.0073	-0.0462	0.0165	0.9585
20.7111	-24.9964	394.8229	27.1209	-140.8072	-40.3428	449.6353	14.4752	376.2331	-17.3016	134.4237	11.0563	359.0768	-0.0592	0.0182	-0.0073	-0.0462	0.0165	0.9585
20.7348	-24.5223	411.4606	27.7304	-146.5627	-40.7792	467.9322	13.7793	360.1526	-16.9562	128.6749	11.0276	342.6912	-0.0592	0.0182	-0.0073	-0.0462	0.0165	0.9585
20.7584	-23.529	427.8325	28.2838	-152.2104	-40.937	485.4008	13.2979	345.3869	-16.9211	123.4194	11.2039	327.6438	-0.0592	0.0182	-0.0073	-0.0462	0.0165	0.9585
20.7821	-22.1775	444.4075	28.8311	-157.9171	-40.9366	502.6041	12.951	331.1357	-17.0681	118.369	11.5073	313.1812	-0.0592	0.0182	-0.0073	-0.0462	0.0165	0.9585
20.8057	-20.5665	461.3304	29.3707	-163.7405	-40.8198	519.7571	12.622	316.8253	-17.2571	113.3214	11.8587	298.7699	-0.0592	0.0182	-0.0073	-0.0462	0.0165	0.9585
20.8294	-18.7903	478.3328	29.8683	-169.5934	-40.5877	536.6541	12.1836	302.2282	-17.3817	108.1977	12.2069	284.2005	-0.0592	0.0182	-0.0073	-0.0462	0.0165	0.9585
20.853	-16.996	494.8372	30.2667	-175.2763	-40.2344	552.7931	11.5206	287.4538	-17.3798	103.0379	12.5327	269.5824	-0.0592	0.0182	-0.0073	-0.0462	0.0165	0.9585
20.8766	-15.3502	510.2254	30.5113	-180.5648	-39.7642	567.6402	10.5784	272.821	-17.216	97.9538	12.8176	255.2151	-0.0592	0.0182	-0.0073	-0.0462	0.0165	0.9585
20.9003	-13.9929	524.0835	30.5779	-185.3027	-39.2015	580.8676	9.4219	258.6684	-16.8704	93.0589	13.0118	241.4077	-0.0592	0.0182	-0.0073	-0.0462	0.0165	0.9585
20.9239	-13.0092	536.3074	30.4859	-189.4436	-38.5945	592.4355	8.2206	245.1695	-16.3404	88.4002	13.0453	228.3116	-0.0592	0.0182	-0.0073	-0.0462	0.0165	0.9585
20.9476	-12.3966	547.1351	30.2958	-193.068	-38.0018	602.6017	7.1637	232.2409	-15.647	83.9291	12.8624	215.8374	-0.0592	0.0182	-0.0073	-0.0462	0.0165	0.9585
20.9712	-12.0549	557.1667	30.0998	-196.3952	-37.4808	611.939	6.3752	219.5962	-14.8312	79.5262	12.4482	203.71	-0.0592	0.0182	-0.0073	-0.0462	0.0165	0.9585
20.9949	-11.8179	567.3318	30.0116	-199.767	-37.087	621.3247	5.8898	206.8249	-13.9439	75.0341	11.8315	191.5416	-0.0592	0.0182	-0.0073	-0.0462	0.0165	0.9585
21.0185	-11.5061	578.7786	30.1694	-203.6012	-36.894	631.849	5.6503	193.4968	-13.0331	70.2953	11.0725	178.9323	-0.0592	0.0182	-0.0073	-0.0462	0.0165	0.9585
21.0421	-10.967	592.6993	30.7318	-208.3234	-37.0035	644.6428	5.5264	179.2742	-12.1302	65.1909	10.2448	165.5695	-0.0592	0.0182	-0.0073	-0.0462	0.0165	0.9585
21.0658	-10.0997	610.1111	31.8575	-214.2889	-37.5326	660.6689	5.3501	163.9478	-11.2429	59.6528	9.4194	151.2601	-0.0592	0.0182	-0.0073	-0.0462	0.0165	0.9585
21.0894	-8.8825	631.6127	33.6669	-221.7009	-38.5859	680.5044	4.9541	147.4139	-10.3537	53.6511	8.6486	135.9092	-0.0592	0.0182	-0.0073	-0.0462	0.0165	0.9585
21.1131	-7.3813	657.2051	36.2081	-230.5489	-40.2253	704.1517	4.2138	129.6915	-9.431	47.1992	7.9551	119.5281	-0.0592	0.0182	-0.0073	-0.0462	0.0165	0.9585
21.1367	-5.7118	686.21	39.4266	-240.5837	-42.4289	730.9416	3.0909	110.9923	-8.4329	40.3801	7.3203	102.3015	-0.0592	0.0182	-0.0073	-0.0462	0.0165	0.9585
21.1604	-3.9869	717.3045	43.1504	-251.3357	-45.0613	759.5551	1.6666	91.7702	-7.3217	33.3667	6.6883	84.6363	-0.0592	0.0182	-0.0073	-0.0462	0.0165	0.9585
21.184	-2.286	748.6078	47.0984	-262.1488	-47.874	788.117	0.13938	72.7292	-6.0893	26.4249	5.9888	67.1686	-0.0592	0.0182	-0.0073	-0.0462	0.0165	0.9585
21.2076	-0.65951	777.7702	50.9333	-272.2059	-50.5587	814.2901	-1.2079	54.7353	-4.7793	19.876	5.1663	50.6812	-0.0592	0.0182	-0.0073	-0.0462	0.0165	0.9585
